<!-- Generated by IcoMoon.io -->
<svg version="1.1" xmlns="http://www.w3.org/2000/svg" width="24" height="24" viewBox="0 0 24 24">
<title>accessible</title>
<path d="M12.844 18h2.063c-0.469 2.297-2.484 3.984-4.922 3.984-2.766 0-4.969-2.203-4.969-4.969 0-2.438 1.688-4.453 3.984-4.922v2.063c-1.172 0.422-2.016 1.547-2.016 2.859 0 1.641 1.359 3 3 3 1.313 0 2.438-0.844 2.859-2.016zM9.984 9.094c0-1.406 1.564-2.649 3-1.828h0.047v0.047c0.234 0.094 0.422 0.234 0.609 0.422l1.313 1.453c0.984 1.078 2.484 1.828 4.031 1.828v1.969c-1.734 0-3.656-0.844-4.969-1.922v3.422h3c1.078 0 1.969 0.938 1.969 2.016v5.484h-1.969v-4.969h-5.016c-1.078 0-2.016-0.938-2.016-2.016v-5.906zM9.984 3.984c0-1.125 0.891-1.969 2.016-1.969s2.016 0.844 2.016 1.969-0.891 2.016-2.016 2.016-2.016-0.891-2.016-2.016z"></path>
</svg>
