<!-- Generated by IcoMoon.io -->
<svg version="1.1" xmlns="http://www.w3.org/2000/svg" width="24" height="24" viewBox="0 0 24 24">
<title>account_balance_wallet</title>
<path d="M15.984 13.5c0.844 0 1.5-0.656 1.5-1.5s-0.656-1.5-1.5-1.5-1.5 0.656-1.5 1.5 0.656 1.5 1.5 1.5zM12 15.984v-7.969h9.984v7.969h-9.984zM21 18v0.984c0 1.078-0.938 2.016-2.016 2.016h-13.969c-1.125 0-2.016-0.938-2.016-2.016v-13.969c0-1.078 0.891-2.016 2.016-2.016h13.969c1.078 0 2.016 0.938 2.016 2.016v0.984h-9c-1.125 0-2.016 0.938-2.016 2.016v7.969c0 1.078 0.891 2.016 2.016 2.016h9z"></path>
</svg>
