<!-- Generated by IcoMoon.io -->
<svg version="1.1" xmlns="http://www.w3.org/2000/svg" width="24" height="24" viewBox="0 0 24 24">
<title>adb</title>
<path d="M15 9c0.563 0 0.984-0.422 0.984-0.984s-0.422-1.031-0.984-1.031-0.984 0.469-0.984 1.031 0.422 0.984 0.984 0.984zM9 9c0.563 0 0.984-0.422 0.984-0.984s-0.422-1.031-0.984-1.031-0.984 0.469-0.984 1.031 0.422 0.984 0.984 0.984zM16.125 4.359c1.734 1.266 2.859 3.328 2.859 5.625v1.031h-13.969v-1.031c0-2.297 1.125-4.359 2.859-5.625l-2.109-2.109 0.844-0.797 2.297 2.297c0.938-0.469 1.969-0.75 3.094-0.75s2.156 0.281 3.094 0.75l2.297-2.297 0.844 0.797zM5.016 15.984v-3.984h13.969v3.984c0 3.891-3.094 7.031-6.984 7.031s-6.984-3.141-6.984-7.031z"></path>
</svg>
