<!-- Generated by IcoMoon.io -->
<svg version="1.1" xmlns="http://www.w3.org/2000/svg" width="24" height="24" viewBox="0 0 24 24">
<title>airline_seat_recline_normal</title>
<path d="M20.016 20.063l-1.453 1.453-3.516-3.516h-5.063c-1.641 0-3-1.359-3-3v-5.766c0-1.219 1.031-2.25 2.25-2.25h0.047c0.695 0 1.284 0.394 1.641 0.75l1.406 1.547c1.078 1.172 3.047 2.016 4.688 2.016v2.203c-1.922 0-4.125-1.031-5.531-2.203v3.703h3.469zM6 15.984c0 1.641 1.359 3 3 3h6v2.016h-6c-2.766 0-5.016-2.25-5.016-5.016v-9h2.016v9zM7.594 5.391c-0.797-0.797-0.797-2.016 0-2.813s2.016-0.797 2.813 0 0.797 2.016 0 2.813-2.016 0.797-2.813 0z"></path>
</svg>
