<!-- Generated by IcoMoon.io -->
<svg version="1.1" xmlns="http://www.w3.org/2000/svg" width="24" height="24" viewBox="0 0 24 24">
<title>airline_seat_recline_extra</title>
<path d="M16.219 15l5.766 4.5-1.5 1.5-3.797-3h-6.844c-1.453 0-2.672-1.031-2.953-2.438l-1.359-5.906c-0.188-1.219 0.609-2.391 1.828-2.625h0.047c0.712-0.102 1.327 0.096 1.734 0.422l1.641 1.266c1.266 0.984 3.047 1.594 4.688 1.266v2.156c-1.875 0.328-3.563-0.328-5.156-1.219l1.031 4.078h4.875zM15.984 18.984v2.016h-7.031c-2.484 0-4.594-1.781-4.969-4.219l-1.969-9.797h1.969l1.969 9.469c0.234 1.453 1.5 2.531 3 2.531h7.031zM5.344 5.625c-0.891-0.656-1.078-1.875-0.469-2.766s1.875-1.125 2.766-0.516c0.891 0.656 1.125 1.922 0.516 2.813-0.656 0.891-1.922 1.078-2.813 0.469z"></path>
</svg>
