<!-- Generated by IcoMoon.io -->
<svg version="1.1" xmlns="http://www.w3.org/2000/svg" width="24" height="24" viewBox="0 0 24 24">
<title>airport_shuttle</title>
<path d="M15 11.016h5.016l-4.031-4.031h-0.984v4.031zM17.484 17.484c0.844 0 1.5-0.656 1.5-1.5s-0.656-1.5-1.5-1.5-1.5 0.656-1.5 1.5 0.656 1.5 1.5 1.5zM12.984 11.016v-4.031h-3.984v4.031h3.984zM6 17.484c0.844 0 1.5-0.656 1.5-1.5s-0.656-1.5-1.5-1.5-1.5 0.656-1.5 1.5 0.656 1.5 1.5 1.5zM3 11.016h3.984v-4.031h-3.984v4.031zM17.016 5.016l6 6v4.969h-2.531c0 1.641-1.359 3-3 3s-3-1.359-3-3h-5.484c0 1.641-1.359 3-3 3s-3-1.359-3-3h-2.016v-9c0-1.125 0.938-1.969 2.016-1.969h14.016z"></path>
</svg>
