<!-- Generated by IcoMoon.io -->
<svg version="1.1" xmlns="http://www.w3.org/2000/svg" width="24" height="24" viewBox="0 0 24 24">
<title>android</title>
<path d="M15 5.016v-1.031h-0.984v1.031h0.984zM9.984 5.016v-1.031h-0.984v1.031h0.984zM15.516 2.156c1.5 1.078 2.484 2.859 2.484 4.828h-12c0-1.969 0.938-3.75 2.438-4.828l-1.313-1.313c-0.188-0.188-0.188-0.516 0-0.703s0.516-0.188 0.703 0l1.5 1.5c0.797-0.422 1.734-0.656 2.672-0.656s1.828 0.234 2.625 0.656l1.5-1.5c0.188-0.188 0.516-0.188 0.703 0s0.188 0.516 0 0.703zM20.484 8.016c0.844 0 1.5 0.656 1.5 1.5v6.984c0 0.844-0.656 1.5-1.5 1.5s-1.5-0.656-1.5-1.5v-6.984c0-0.844 0.656-1.5 1.5-1.5zM3.516 8.016c0.844 0 1.5 0.656 1.5 1.5v6.984c0 0.844-0.656 1.5-1.5 1.5s-1.5-0.656-1.5-1.5v-6.984c0-0.844 0.656-1.5 1.5-1.5zM6 18v-9.984h12v9.984c0 0.563-0.422 0.984-0.984 0.984h-1.031v3.516c0 0.844-0.656 1.5-1.5 1.5s-1.5-0.656-1.5-1.5v-3.516h-1.969v3.516c0 0.844-0.656 1.5-1.5 1.5s-1.5-0.656-1.5-1.5v-3.516h-1.031c-0.563 0-0.984-0.422-0.984-0.984z"></path>
</svg>
