<!-- Generated by IcoMoon.io -->
<svg version="1.1" xmlns="http://www.w3.org/2000/svg" width="24" height="24" viewBox="0 0 24 24">
<title>blur_off</title>
<path d="M3 13.5c0.281 0 0.516 0.234 0.516 0.516s-0.234 0.469-0.516 0.469-0.516-0.188-0.516-0.469 0.234-0.516 0.516-0.516zM6 17.016c0.563 0 0.984 0.422 0.984 0.984s-0.422 0.984-0.984 0.984-0.984-0.422-0.984-0.984 0.422-0.984 0.984-0.984zM9.984 20.484c0.281 0 0.516 0.234 0.516 0.516s-0.234 0.516-0.516 0.516-0.469-0.234-0.469-0.516 0.188-0.516 0.469-0.516zM3 9.516c0.281 0 0.516 0.188 0.516 0.469s-0.234 0.516-0.516 0.516-0.516-0.234-0.516-0.516 0.234-0.469 0.516-0.469zM6 12.984c0.563 0 0.984 0.469 0.984 1.031s-0.422 0.984-0.984 0.984-0.984-0.422-0.984-0.984 0.422-1.031 0.984-1.031zM21 13.5c0.281 0 0.516 0.234 0.516 0.516s-0.234 0.469-0.516 0.469-0.516-0.188-0.516-0.469 0.234-0.516 0.516-0.516zM9.984 17.016c0.563 0 1.031 0.422 1.031 0.984s-0.469 0.984-1.031 0.984-0.984-0.422-0.984-0.984 0.422-0.984 0.984-0.984zM2.484 5.25l1.266-1.266 16.266 16.266-1.313 1.266-3.75-3.797c0.047 0.094 0.047 0.188 0.047 0.281 0 0.563-0.422 0.984-0.984 0.984s-1.031-0.422-1.031-0.984 0.469-0.984 1.031-0.984c0.094 0 0.188 0 0.281 0.047l-2.813-2.813c-0.094 0.703-0.75 1.266-1.5 1.266-0.844 0-1.5-0.656-1.5-1.5 0-0.75 0.563-1.406 1.266-1.5l-2.813-2.813c0.047 0.094 0.047 0.188 0.047 0.281 0 0.563-0.422 1.031-0.984 1.031s-0.984-0.469-0.984-1.031 0.422-0.984 0.984-0.984l0.281 0.047zM14.016 20.484c0.281 0 0.469 0.234 0.469 0.516s-0.188 0.516-0.469 0.516-0.516-0.234-0.516-0.516 0.234-0.516 0.516-0.516zM18 6.984c-0.563 0-0.984-0.422-0.984-0.984s0.422-0.984 0.984-0.984 0.984 0.422 0.984 0.984-0.422 0.984-0.984 0.984zM18 11.016c-0.563 0-0.984-0.469-0.984-1.031s0.422-0.984 0.984-0.984 0.984 0.422 0.984 0.984-0.422 1.031-0.984 1.031zM18 15c-0.563 0-0.984-0.422-0.984-0.984s0.422-1.031 0.984-1.031 0.984 0.469 0.984 1.031-0.422 0.984-0.984 0.984zM9.984 6.984c-0.563 0-0.984-0.422-0.984-0.984s0.422-0.984 0.984-0.984 1.031 0.422 1.031 0.984-0.469 0.984-1.031 0.984zM21 10.5c-0.281 0-0.516-0.234-0.516-0.516s0.234-0.469 0.516-0.469 0.516 0.188 0.516 0.469-0.234 0.516-0.516 0.516zM9.984 3.516c-0.281 0-0.469-0.234-0.469-0.516s0.188-0.516 0.469-0.516 0.516 0.234 0.516 0.516-0.234 0.516-0.516 0.516zM14.016 3.516c-0.281 0-0.516-0.234-0.516-0.516s0.234-0.516 0.516-0.516 0.469 0.234 0.469 0.516-0.188 0.516-0.469 0.516zM13.781 11.484c-0.656-0.094-1.172-0.609-1.266-1.266v-0.234c0-0.844 0.656-1.5 1.5-1.5s1.5 0.656 1.5 1.5-0.656 1.5-1.5 1.5h-0.234zM14.016 6.984c-0.563 0-1.031-0.422-1.031-0.984s0.469-0.984 1.031-0.984 0.984 0.422 0.984 0.984-0.422 0.984-0.984 0.984z"></path>
</svg>
