<!-- Generated by IcoMoon.io -->
<svg version="1.1" xmlns="http://www.w3.org/2000/svg" width="24" height="24" viewBox="0 0 24 24">
<title>blur_on</title>
<path d="M14.016 8.484c0.844 0 1.5 0.656 1.5 1.5s-0.656 1.5-1.5 1.5-1.5-0.656-1.5-1.5 0.656-1.5 1.5-1.5zM14.016 12.516c0.844 0 1.5 0.656 1.5 1.5s-0.656 1.5-1.5 1.5-1.5-0.656-1.5-1.5 0.656-1.5 1.5-1.5zM9.984 17.016c0.563 0 1.031 0.422 1.031 0.984s-0.469 0.984-1.031 0.984-0.984-0.422-0.984-0.984 0.422-0.984 0.984-0.984zM9.984 8.484c0.844 0 1.5 0.656 1.5 1.5s-0.656 1.5-1.5 1.5-1.5-0.656-1.5-1.5 0.656-1.5 1.5-1.5zM14.016 20.484c0.281 0 0.469 0.234 0.469 0.516s-0.188 0.516-0.469 0.516-0.516-0.234-0.516-0.516 0.234-0.516 0.516-0.516zM14.016 17.016c0.563 0 0.984 0.422 0.984 0.984s-0.422 0.984-0.984 0.984-1.031-0.422-1.031-0.984 0.469-0.984 1.031-0.984zM21 13.5c0.281 0 0.516 0.234 0.516 0.516s-0.234 0.469-0.516 0.469-0.516-0.188-0.516-0.469 0.234-0.516 0.516-0.516zM18 5.016c0.563 0 0.984 0.422 0.984 0.984s-0.422 0.984-0.984 0.984-0.984-0.422-0.984-0.984 0.422-0.984 0.984-0.984zM18 9c0.563 0 0.984 0.422 0.984 0.984s-0.422 1.031-0.984 1.031-0.984-0.469-0.984-1.031 0.422-0.984 0.984-0.984zM18 17.016c0.563 0 0.984 0.422 0.984 0.984s-0.422 0.984-0.984 0.984-0.984-0.422-0.984-0.984 0.422-0.984 0.984-0.984zM18 12.984c0.563 0 0.984 0.469 0.984 1.031s-0.422 0.984-0.984 0.984-0.984-0.422-0.984-0.984 0.422-1.031 0.984-1.031zM9.984 12.516c0.844 0 1.5 0.656 1.5 1.5s-0.656 1.5-1.5 1.5-1.5-0.656-1.5-1.5 0.656-1.5 1.5-1.5zM9.984 6.984c-0.563 0-0.984-0.422-0.984-0.984s0.422-0.984 0.984-0.984 1.031 0.422 1.031 0.984-0.469 0.984-1.031 0.984zM9.984 3.516c-0.281 0-0.469-0.234-0.469-0.516s0.188-0.516 0.469-0.516 0.516 0.234 0.516 0.516-0.234 0.516-0.516 0.516zM9.984 20.484c0.281 0 0.516 0.234 0.516 0.516s-0.234 0.516-0.516 0.516-0.469-0.234-0.469-0.516 0.188-0.516 0.469-0.516zM3 13.5c0.281 0 0.516 0.234 0.516 0.516s-0.234 0.469-0.516 0.469-0.516-0.188-0.516-0.469 0.234-0.516 0.516-0.516zM14.016 3.516c-0.281 0-0.516-0.234-0.516-0.516s0.234-0.516 0.516-0.516 0.469 0.234 0.469 0.516-0.188 0.516-0.469 0.516zM14.016 6.984c-0.563 0-1.031-0.422-1.031-0.984s0.469-0.984 1.031-0.984 0.984 0.422 0.984 0.984-0.422 0.984-0.984 0.984zM21 10.5c-0.281 0-0.516-0.234-0.516-0.516s0.234-0.469 0.516-0.469 0.516 0.188 0.516 0.469-0.234 0.516-0.516 0.516zM6 5.016c0.563 0 0.984 0.422 0.984 0.984s-0.422 0.984-0.984 0.984-0.984-0.422-0.984-0.984 0.422-0.984 0.984-0.984zM3 9.516c0.281 0 0.516 0.188 0.516 0.469s-0.234 0.516-0.516 0.516-0.516-0.234-0.516-0.516 0.234-0.469 0.516-0.469zM6 9c0.563 0 0.984 0.422 0.984 0.984s-0.422 1.031-0.984 1.031-0.984-0.469-0.984-1.031 0.422-0.984 0.984-0.984zM6 17.016c0.563 0 0.984 0.422 0.984 0.984s-0.422 0.984-0.984 0.984-0.984-0.422-0.984-0.984 0.422-0.984 0.984-0.984zM6 12.984c0.563 0 0.984 0.469 0.984 1.031s-0.422 0.984-0.984 0.984-0.984-0.422-0.984-0.984 0.422-1.031 0.984-1.031z"></path>
</svg>
