<!-- Generated by IcoMoon.io -->
<svg version="1.1" xmlns="http://www.w3.org/2000/svg" width="24" height="24" viewBox="0 0 24 24">
<title>blur_circular</title>
<path d="M14.016 12.984c0.563 0 0.984 0.469 0.984 1.031s-0.422 0.984-0.984 0.984-1.031-0.422-1.031-0.984 0.469-1.031 1.031-1.031zM14.016 16.5c0.281 0 0.469 0.234 0.469 0.516s-0.188 0.469-0.469 0.469-0.516-0.188-0.516-0.469 0.234-0.516 0.516-0.516zM12 20.016c4.406 0 8.016-3.609 8.016-8.016s-3.609-8.016-8.016-8.016-8.016 3.609-8.016 8.016 3.609 8.016 8.016 8.016zM12 2.016c5.531 0 9.984 4.453 9.984 9.984s-4.453 9.984-9.984 9.984-9.984-4.453-9.984-9.984 4.453-9.984 9.984-9.984zM17.016 9.516c0.281 0 0.469 0.188 0.469 0.469s-0.188 0.516-0.469 0.516-0.516-0.234-0.516-0.516 0.234-0.469 0.516-0.469zM17.016 13.5c0.281 0 0.469 0.234 0.469 0.516s-0.188 0.469-0.469 0.469-0.516-0.188-0.516-0.469 0.234-0.516 0.516-0.516zM14.016 7.5c-0.281 0-0.516-0.234-0.516-0.516s0.234-0.469 0.516-0.469 0.469 0.188 0.469 0.469-0.188 0.516-0.469 0.516zM14.016 9c0.563 0 0.984 0.422 0.984 0.984s-0.422 1.031-0.984 1.031-1.031-0.469-1.031-1.031 0.469-0.984 1.031-0.984zM9.984 7.5c-0.281 0-0.469-0.234-0.469-0.516s0.188-0.469 0.469-0.469 0.516 0.188 0.516 0.469-0.234 0.516-0.516 0.516zM6.984 13.5c0.281 0 0.516 0.234 0.516 0.516s-0.234 0.469-0.516 0.469-0.469-0.188-0.469-0.469 0.188-0.516 0.469-0.516zM9.984 16.5c0.281 0 0.516 0.234 0.516 0.516s-0.234 0.469-0.516 0.469-0.469-0.188-0.469-0.469 0.188-0.516 0.469-0.516zM6.984 9.516c0.281 0 0.516 0.188 0.516 0.469s-0.234 0.516-0.516 0.516-0.469-0.234-0.469-0.516 0.188-0.469 0.469-0.469zM9.984 12.984c0.563 0 1.031 0.469 1.031 1.031s-0.469 0.984-1.031 0.984-0.984-0.422-0.984-0.984 0.422-1.031 0.984-1.031zM9.984 9c0.563 0 1.031 0.422 1.031 0.984s-0.469 1.031-1.031 1.031-0.984-0.469-0.984-1.031 0.422-0.984 0.984-0.984z"></path>
</svg>
