<!-- Generated by IcoMoon.io -->
<svg version="1.1" xmlns="http://www.w3.org/2000/svg" width="24" height="24" viewBox="0 0 24 24">
<title>blur_linear</title>
<path d="M12.984 17.016c-0.563 0-0.984-0.469-0.984-1.031s0.422-0.984 0.984-0.984 1.031 0.422 1.031 0.984-0.469 1.031-1.031 1.031zM12.984 12.984c-0.563 0-0.984-0.422-0.984-0.984s0.422-0.984 0.984-0.984 1.031 0.422 1.031 0.984-0.469 0.984-1.031 0.984zM12.984 9c-0.563 0-0.984-0.422-0.984-0.984s0.422-1.031 0.984-1.031 1.031 0.469 1.031 1.031-0.469 0.984-1.031 0.984zM17.016 12.516c-0.281 0-0.516-0.234-0.516-0.516s0.234-0.516 0.516-0.516 0.469 0.234 0.469 0.516-0.188 0.516-0.469 0.516zM17.016 8.484c-0.281 0-0.516-0.188-0.516-0.469s0.234-0.516 0.516-0.516 0.469 0.234 0.469 0.516-0.188 0.469-0.469 0.469zM3 3h18v2.016h-18v-2.016zM17.016 16.5c-0.281 0-0.516-0.234-0.516-0.516s0.234-0.469 0.516-0.469 0.469 0.188 0.469 0.469-0.188 0.516-0.469 0.516zM9 17.016c-0.563 0-0.984-0.469-0.984-1.031s0.422-0.984 0.984-0.984 0.984 0.422 0.984 0.984-0.422 1.031-0.984 1.031zM5.016 13.5c-0.844 0-1.5-0.656-1.5-1.5s0.656-1.5 1.5-1.5 1.5 0.656 1.5 1.5-0.656 1.5-1.5 1.5zM5.016 9.516c-0.844 0-1.5-0.656-1.5-1.5s0.656-1.5 1.5-1.5 1.5 0.656 1.5 1.5-0.656 1.5-1.5 1.5zM3 21v-2.016h18v2.016h-18zM9 9c-0.563 0-0.984-0.422-0.984-0.984s0.422-1.031 0.984-1.031 0.984 0.469 0.984 1.031-0.422 0.984-0.984 0.984zM9 12.984c-0.563 0-0.984-0.422-0.984-0.984s0.422-0.984 0.984-0.984 0.984 0.422 0.984 0.984-0.422 0.984-0.984 0.984zM5.016 17.484c-0.844 0-1.5-0.656-1.5-1.5s0.656-1.5 1.5-1.5 1.5 0.656 1.5 1.5-0.656 1.5-1.5 1.5z"></path>
</svg>
