<!-- Generated by IcoMoon.io -->
<svg version="1.1" xmlns="http://www.w3.org/2000/svg" width="24" height="24" viewBox="0 0 24 24">
<title>brightness_high</title>
<path d="M12 8.016c2.203 0 3.984 1.781 3.984 3.984s-1.781 3.984-3.984 3.984-3.984-1.781-3.984-3.984 1.781-3.984 3.984-3.984zM12 18c3.328 0 6-2.672 6-6s-2.672-6-6-6-6 2.672-6 6 2.672 6 6 6zM20.016 8.672l3.281 3.328-3.281 3.328v4.688h-4.688l-3.328 3.281-3.328-3.281h-4.688v-4.688l-3.281-3.328 3.281-3.328v-4.688h4.688l3.328-3.281 3.328 3.281h4.688v4.688z"></path>
</svg>
