<!-- Generated by IcoMoon.io -->
<svg version="1.1" xmlns="http://www.w3.org/2000/svg" width="24" height="24" viewBox="0 0 24 24">
<title>brightness_4</title>
<path d="M12 18c3.328 0 6-2.672 6-6s-2.672-6-6-6c-0.891 0-1.734 0.234-2.484 0.563 2.063 0.938 3.469 3 3.469 5.438s-1.406 4.5-3.469 5.438c0.75 0.328 1.594 0.563 2.484 0.563zM20.016 8.672l3.281 3.328-3.281 3.328v4.688h-4.688l-3.328 3.281-3.328-3.281h-4.688v-4.688l-3.281-3.328 3.281-3.328v-4.688h4.688l3.328-3.281 3.328 3.281h4.688v4.688z"></path>
</svg>
