<!-- Generated by IcoMoon.io -->
<svg version="1.1" xmlns="http://www.w3.org/2000/svg" width="24" height="24" viewBox="0 0 24 24">
<title>bubble_chart</title>
<path d="M10.406 8.813c0-2.672 2.109-4.828 4.781-4.828s4.828 2.156 4.828 4.828-2.156 4.781-4.828 4.781-4.781-2.109-4.781-4.781zM12.797 18c0-1.125 0.891-2.016 2.016-2.016s1.969 0.891 1.969 2.016-0.844 2.016-1.969 2.016-2.016-0.891-2.016-2.016zM3.984 14.391c0-1.781 1.453-3.188 3.234-3.188s3.188 1.406 3.188 3.188-1.406 3.188-3.188 3.188-3.234-1.406-3.234-3.188z"></path>
</svg>
