<!-- Generated by IcoMoon.io -->
<svg version="1.1" xmlns="http://www.w3.org/2000/svg" width="24" height="24" viewBox="0 0 24 24">
<title>camera_front</title>
<path d="M6.984 2.016v10.5c0-1.688 3.328-2.531 5.016-2.531s5.016 0.844 5.016 2.531v-10.5h-10.031zM17.016 0c1.078 0 1.969 0.938 1.969 2.016v13.969c0 1.078-0.891 2.016-1.969 2.016h-7.031l3 3-3 3v-2.016h-4.969v-1.969h4.969v-2.016h-3c-1.078 0-1.969-0.938-1.969-2.016v-13.969c0-1.078 0.891-2.016 1.969-2.016h10.031zM12 8.016c-1.078 0-1.969-0.938-1.969-2.016s0.891-2.016 1.969-2.016 2.016 0.938 2.016 2.016-0.938 2.016-2.016 2.016zM14.016 20.016h4.969v1.969h-4.969v-1.969z"></path>
</svg>
