<!-- Generated by IcoMoon.io -->
<svg version="1.1" xmlns="http://www.w3.org/2000/svg" width="24" height="24" viewBox="0 0 24 24">
<title>camera_roll</title>
<path d="M20.016 9v-2.016h-2.016v2.016h2.016zM20.016 18v-2.016h-2.016v2.016h2.016zM15.984 9v-2.016h-1.969v2.016h1.969zM15.984 18v-2.016h-1.969v2.016h1.969zM12 9v-2.016h-2.016v2.016h2.016zM12 18v-2.016h-2.016v2.016h2.016zM14.016 5.016h7.969v15h-7.969c0 1.078-0.938 1.969-2.016 1.969h-8.016c-1.078 0-1.969-0.891-1.969-1.969v-15c0-1.078 0.891-2.016 1.969-2.016h1.031v-0.984c0-0.563 0.422-1.031 0.984-1.031h3.984c0.563 0 1.031 0.469 1.031 1.031v0.984h0.984c1.078 0 2.016 0.938 2.016 2.016z"></path>
</svg>
