<!-- Generated by IcoMoon.io -->
<svg version="1.1" xmlns="http://www.w3.org/2000/svg" width="24" height="24" viewBox="0 0 24 24">
<title>camera_rear</title>
<path d="M12 6c1.078 0 1.969-0.938 1.969-2.016s-0.891-1.969-1.969-1.969-2.016 0.891-2.016 1.969 0.891 2.016 2.016 2.016zM17.016 0c1.078 0 1.969 0.938 1.969 2.016v13.969c0 1.078-0.891 2.016-1.969 2.016h-7.031l3 3-3 3v-2.016h-4.969v-1.969h4.969v-2.016h-3c-1.078 0-1.969-0.938-1.969-2.016v-13.969c0-1.078 0.891-2.016 1.969-2.016h10.031zM14.016 20.016h4.969v1.969h-4.969v-1.969z"></path>
</svg>
