<!-- Generated by IcoMoon.io -->
<svg version="1.1" xmlns="http://www.w3.org/2000/svg" width="24" height="24" viewBox="0 0 24 24">
<title>camera</title>
<path d="M9.844 21.75c1.61-2.78 3.199-5.582 4.828-8.344l3.656 6.328c-1.734 1.406-3.938 2.25-6.328 2.25-0.75 0-1.453-0.094-2.156-0.234zM2.438 15h9.703l-3.703 6.328c-2.859-1.078-5.063-3.422-6-6.328zM4.641 5.25c1.687 2.922 3.365 5.853 5.063 8.766h-7.5c-0.141-0.656-0.188-1.313-0.188-2.016 0-2.625 0.984-4.969 2.625-6.75zM21.797 9.984c0.141 0.656 0.188 1.313 0.188 2.016 0 2.625-0.984 4.969-2.625 6.75l-4.781-8.25-0.281-0.516h7.5zM21.563 9h-9.703l3.703-6.328c2.859 1.078 5.063 3.422 6 6.328zM9.422 10.5l-0.094 0.094-3.656-6.328c1.734-1.406 3.938-2.25 6.328-2.25 0.75 0 1.453 0.094 2.156 0.234z"></path>
</svg>
