<!-- Generated by IcoMoon.io -->
<svg version="1.1" xmlns="http://www.w3.org/2000/svg" width="24" height="24" viewBox="0 0 24 24">
<title>cast_connected</title>
<path d="M21 3c1.078 0 2.016 0.938 2.016 2.016v13.969c0 1.078-0.938 2.016-2.016 2.016h-6.984v-2.016h6.984v-13.969h-18v3h-2.016v-3c0-1.078 0.938-2.016 2.016-2.016h18zM0.984 9.984c6.047 0 11.016 4.922 11.016 11.016h-2.016c0-4.969-4.031-9-9-9v-2.016zM18.984 6.984v10.031h-5.625c-1.266-3.938-4.406-7.125-8.344-8.391v-1.641h13.969zM0.984 14.016c3.891 0 7.031 3.094 7.031 6.984h-2.016c0-2.766-2.25-5.016-5.016-5.016v-1.969zM0.984 18c1.641 0 3 1.359 3 3h-3v-3z"></path>
</svg>
