<!-- Generated by IcoMoon.io -->
<svg version="1.1" xmlns="http://www.w3.org/2000/svg" width="32" height="28" viewBox="0 0 32 28">
<title>cc</title>
<path d="M12.266 15.75h3.234c-0.297 3.297-2.188 5.297-4.891 5.297-3.375 0-5.422-2.594-5.422-6.75 0-4.125 2.25-6.703 5.094-6.703 3.125 0 4.875 1.937 5.141 5.219h-3.172c-0.109-1.328-0.766-2.094-1.828-2.094-1.172 0-1.875 1.25-1.875 3.719 0 1.797 0.313 3.484 2.016 3.484 1.078 0 1.578-0.938 1.703-2.172zM23.391 15.75h3.219c-0.297 3.297-2.172 5.297-4.875 5.297-3.375 0-5.422-2.594-5.422-6.75 0-4.125 2.25-6.703 5.094-6.703 3.125 0 4.875 1.937 5.141 5.219h-3.187c-0.094-1.328-0.766-2.094-1.813-2.094-1.172 0-1.875 1.25-1.875 3.719 0 1.797 0.297 3.484 2 3.484 1.078 0 1.594-0.938 1.719-2.172zM29 13.891c0-4.188-0.219-6-1.188-7.313-0.203-0.266-0.531-0.438-0.797-0.625-0.984-0.719-5.563-0.984-10.891-0.984s-10.125 0.266-11.094 0.984c-0.281 0.203-0.625 0.359-0.828 0.625-0.969 1.297-1.172 3.125-1.172 7.313 0 4.203 0.219 6.016 1.172 7.313 0.219 0.297 0.547 0.422 0.828 0.641 0.969 0.719 5.766 1.016 11.094 1.016s9.906-0.281 10.891-1.016c0.266-0.203 0.609-0.328 0.797-0.641 0.984-1.281 1.188-3.109 1.188-7.313zM32 2v24h-32v-24h32z"></path>
</svg>
