<!-- Generated by IcoMoon.io -->
<svg version="1.1" xmlns="http://www.w3.org/2000/svg" width="24" height="24" viewBox="0 0 24 24">
<title>center_focus_strong</title>
<path d="M18.984 18.984v-3.984h2.016v3.984c0 1.078-0.938 2.016-2.016 2.016h-3.984v-2.016h3.984zM18.984 3c1.078 0 2.016 0.938 2.016 2.016v3.984h-2.016v-3.984h-3.984v-2.016h3.984zM5.016 5.016v3.984h-2.016v-3.984c0-1.078 0.938-2.016 2.016-2.016h3.984v2.016h-3.984zM5.016 15v3.984h3.984v2.016h-3.984c-1.078 0-2.016-0.938-2.016-2.016v-3.984h2.016zM12 8.016c2.203 0 3.984 1.781 3.984 3.984s-1.781 3.984-3.984 3.984-3.984-1.781-3.984-3.984 1.781-3.984 3.984-3.984z"></path>
</svg>
