<!-- Generated by IcoMoon.io -->
<svg version="1.1" xmlns="http://www.w3.org/2000/svg" width="24" height="24" viewBox="0 0 24 24">
<title>child_care</title>
<path d="M7.5 14.016h9c-0.75 1.781-2.484 3-4.5 3s-3.75-1.219-4.5-3zM12 18.984c3.188 0 5.87-2.101 6.703-5.016 0.094 0 0.188 0.047 0.281 0.047 1.078 0 2.016-0.938 2.016-2.016s-0.938-2.016-2.016-2.016c-0.094 0-0.188 0.047-0.281 0.047-0.833-2.914-3.515-5.016-6.703-5.016s-5.87 2.101-6.703 5.016c-0.094 0-0.188-0.047-0.281-0.047-1.078 0-2.016 0.938-2.016 2.016s0.938 2.016 2.016 2.016c0.094 0 0.188-0.047 0.281-0.047 0.833 2.914 3.515 5.016 6.703 5.016zM22.922 12.656c-0.234 1.5-1.313 2.766-2.766 3.188-1.325 2.771-4.445 5.156-8.156 5.156-3.698 0-6.821-2.346-8.109-5.156-1.453-0.422-2.578-1.688-2.813-3.188-0.047-0.188-0.094-0.422-0.094-0.656s0.047-0.469 0.094-0.656c0.234-1.5 1.359-2.766 2.813-3.188 0.516-1.125 1.219-2.109 2.156-2.906 1.594-1.406 3.656-2.25 5.953-2.25 3.764 0 6.802 2.304 8.109 5.156 1.453 0.422 2.578 1.688 2.813 3.188 0.047 0.188 0.094 0.422 0.094 0.656s-0.047 0.469-0.094 0.656zM8.25 10.5c0-0.703 0.563-1.266 1.266-1.266s1.219 0.563 1.219 1.266-0.516 1.266-1.219 1.266-1.266-0.563-1.266-1.266zM13.266 10.5c0-0.703 0.516-1.266 1.219-1.266s1.266 0.563 1.266 1.266-0.563 1.266-1.266 1.266-1.219-0.563-1.219-1.266z"></path>
</svg>
