<!-- Generated by IcoMoon.io -->
<svg version="1.1" xmlns="http://www.w3.org/2000/svg" width="24" height="24" viewBox="0 0 24 24">
<title>d_rotation</title>
<path d="M12 0c6.281 0 11.438 4.828 11.953 10.969h-1.5c-0.328-3.75-2.672-6.891-5.953-8.438l-1.359 1.313-3.797-3.797zM16.547 11.813c0-1.638-0.641-2.672-2.203-2.672h-0.938v5.766h0.891c1.202 0 1.888-0.654 2.156-1.594 0.094-0.328 0.094-0.703 0.094-1.125v-0.375zM14.344 8.016c1.79 0 2.856 0.906 3.375 2.203 0.188 0.469 0.234 1.031 0.234 1.594v0.375c0 1.238-0.355 2.136-0.984 2.766s-1.432 1.031-2.672 1.031h-2.297v-7.969h2.344zM9.703 11.906c0.717 0.287 1.313 0.855 1.313 1.828 0 0.375-0.094 0.656-0.234 0.938s-0.281 0.563-0.516 0.75c-0.44 0.352-1.104 0.563-1.875 0.563-1.458 0-2.531-0.738-2.531-2.203h1.266c0 0.724 0.544 1.172 1.266 1.172 0.838 0 1.313-0.4 1.313-1.266 0-0.883-0.581-1.266-1.453-1.266h-0.75v-1.031h0.75c0.811 0 1.359-0.376 1.359-1.172 0-0.775-0.414-1.172-1.219-1.172-0.677 0-1.172 0.402-1.172 1.078h-1.313c0-0.698 0.354-1.151 0.703-1.5 0.465-0.372 0.98-0.609 1.781-0.609 1.202 0 1.893 0.458 2.297 1.266 0.141 0.281 0.188 0.563 0.188 0.938 0 0.853-0.578 1.391-1.172 1.688zM7.5 21.469l1.359-1.313 3.797 3.797-0.656 0.047c-6.281 0-11.438-4.875-11.953-11.016h1.5c0.375 3.75 2.672 6.938 5.953 8.484z"></path>
</svg>
