<!-- Generated by IcoMoon.io -->
<svg version="1.1" xmlns="http://www.w3.org/2000/svg" width="24" height="24" viewBox="0 0 24 24">
<title>developer_mode</title>
<path d="M17.016 18.984v-1.969h1.969v3.984c0 1.078-0.891 2.016-1.969 2.016h-10.031c-1.078 0-1.969-0.938-1.969-2.016v-3.984h1.969v1.969h10.031zM9.984 15.188l-1.406 1.406-4.594-4.594 4.594-4.594 1.406 1.406-3.141 3.188zM15.422 16.594l-1.406-1.406 3.141-3.188-3.141-3.188 1.406-1.406 4.594 4.594zM6.984 5.016v1.969h-1.969v-3.984c0-1.078 0.891-2.016 1.969-2.016l10.031 0.047c1.078 0 1.969 0.891 1.969 1.969v3.984h-1.969v-1.969h-10.031z"></path>
</svg>
