<!-- Generated by IcoMoon.io -->
<svg version="1.1" xmlns="http://www.w3.org/2000/svg" width="24" height="24" viewBox="0 0 24 24">
<title>directions_railway</title>
<path d="M18 9.984v-4.969h-12v4.969h12zM12 17.016c1.078 0 2.016-0.938 2.016-2.016s-0.938-2.016-2.016-2.016-2.016 0.938-2.016 2.016 0.938 2.016 2.016 2.016zM3.984 15.516v-10.5c0-3.516 3.609-4.031 8.016-4.031s8.016 0.516 8.016 4.031v10.5c0 1.922-1.594 3.469-3.516 3.469l1.5 1.5v0.516h-12v-0.516l1.5-1.5c-1.922 0-3.516-1.547-3.516-3.469z"></path>
</svg>
