<!-- Generated by IcoMoon.io -->
<svg version="1.1" xmlns="http://www.w3.org/2000/svg" width="24" height="24" viewBox="0 0 24 24">
<title>directions_bike</title>
<path d="M18.984 20.484c1.922 0 3.516-1.547 3.516-3.469s-1.594-3.516-3.516-3.516-3.469 1.594-3.469 3.516 1.547 3.469 3.469 3.469zM18.984 12c2.813 0 5.016 2.203 5.016 5.016s-2.203 4.969-5.016 4.969-4.969-2.156-4.969-4.969 2.156-5.016 4.969-5.016zM10.781 10.5l2.203 2.297v6.188h-1.969v-4.969l-3.234-2.813c-0.422-0.281-0.563-0.797-0.563-1.406 0-0.516 0.141-0.984 0.563-1.406l2.813-2.813c0.281-0.422 0.797-0.563 1.406-0.563s1.078 0.141 1.594 0.563l1.922 1.922c0.891 0.891 2.063 1.5 3.563 1.5v2.016c-2.109 0-3.75-0.797-5.063-2.109l-0.797-0.797zM5.016 20.484c1.922 0 3.469-1.547 3.469-3.469s-1.547-3.516-3.469-3.516-3.516 1.594-3.516 3.516 1.594 3.469 3.516 3.469zM5.016 12c2.813 0 4.969 2.203 4.969 5.016s-2.156 4.969-4.969 4.969-5.016-2.156-5.016-4.969 2.203-5.016 5.016-5.016zM15.516 5.484c-1.078 0-2.016-0.891-2.016-1.969s0.938-2.016 2.016-2.016 1.969 0.938 1.969 2.016-0.891 1.969-1.969 1.969z"></path>
</svg>
