<!-- Generated by IcoMoon.io -->
<svg version="1.1" xmlns="http://www.w3.org/2000/svg" width="24" height="24" viewBox="0 0 24 24">
<title>directions_bus</title>
<path d="M18 11.016v-5.016h-12v5.016h12zM16.5 17.016c0.844 0 1.5-0.656 1.5-1.5s-0.656-1.5-1.5-1.5-1.5 0.656-1.5 1.5 0.656 1.5 1.5 1.5zM7.5 17.016c0.844 0 1.5-0.656 1.5-1.5s-0.656-1.5-1.5-1.5-1.5 0.656-1.5 1.5 0.656 1.5 1.5 1.5zM3.984 15.984v-9.984c0-3.516 3.609-3.984 8.016-3.984s8.016 0.469 8.016 3.984v9.984c0 0.891-0.422 1.688-1.031 2.25v1.781c0 0.563-0.422 0.984-0.984 0.984h-0.984c-0.563 0-1.031-0.422-1.031-0.984v-1.031h-7.969v1.031c0 0.563-0.469 0.984-1.031 0.984h-0.984c-0.563 0-0.984-0.422-0.984-0.984v-1.781c-0.609-0.563-1.031-1.359-1.031-2.25z"></path>
</svg>
