<!-- Generated by IcoMoon.io -->
<svg version="1.1" xmlns="http://www.w3.org/2000/svg" width="24" height="24" viewBox="0 0 24 24">
<title>directions_walk</title>
<path d="M9.797 8.906l-2.813 14.109h2.109l1.828-8.016 2.063 2.016v6h2.016v-7.5l-2.109-2.016 0.609-3c1.313 1.5 3.281 2.484 5.484 2.484v-1.969c-1.922 0-3.469-1.031-4.266-2.438l-1.031-1.594c-0.422-0.609-0.984-0.984-1.688-0.984-0.281 0-0.516 0.094-0.797 0.094l-5.203 2.203v4.688h2.016v-3.375l1.781-0.703zM13.5 5.484c-1.078 0-2.016-0.891-2.016-1.969s0.938-2.016 2.016-2.016 2.016 0.938 2.016 2.016-0.938 1.969-2.016 1.969z"></path>
</svg>
