<!-- Generated by IcoMoon.io -->
<svg version="1.1" xmlns="http://www.w3.org/2000/svg" width="24" height="24" viewBox="0 0 24 24">
<title>directions_boat</title>
<path d="M6 6v3.984l6-1.969 6 1.969v-3.984h-12zM3.938 18.984l-1.875-6.656c-0.224-0.672 0.187-1.109 0.656-1.266l1.266-0.422v-4.641c0-1.078 0.938-2.016 2.016-2.016h3v-3h6v3h3c1.078 0 2.016 0.938 2.016 2.016v4.641l1.266 0.422c0.47 0.157 0.881 0.592 0.656 1.266l-1.875 6.656h-0.047c-1.594 0-3.047-0.844-4.031-1.969-0.984 1.125-2.391 1.969-3.984 1.969s-3-0.844-3.984-1.969c-0.984 1.125-2.438 1.969-4.031 1.969h-0.047zM20.016 21h1.969v2.016h-1.969c-1.359 0-2.766-0.328-4.031-0.984-2.531 1.313-5.438 1.313-7.969 0-1.266 0.656-2.672 0.984-4.031 0.984h-1.969v-2.016h1.969c1.406 0 2.813-0.469 4.031-1.313 2.438 1.688 5.531 1.688 7.969 0 1.219 0.844 2.625 1.313 4.031 1.313z"></path>
</svg>
