<!-- Generated by IcoMoon.io -->
<svg version="1.1" xmlns="http://www.w3.org/2000/svg" width="24" height="24" viewBox="0 0 24 24">
<title>directions_transit</title>
<path d="M18 11.016v-5.016h-5.016v5.016h5.016zM16.5 17.016c0.844 0 1.5-0.656 1.5-1.5s-0.656-1.5-1.5-1.5-1.5 0.656-1.5 1.5 0.656 1.5 1.5 1.5zM11.016 11.016v-5.016h-5.016v5.016h5.016zM7.5 17.016c0.844 0 1.5-0.656 1.5-1.5s-0.656-1.5-1.5-1.5-1.5 0.656-1.5 1.5 0.656 1.5 1.5 1.5zM12 2.016c4.406 0 8.016 0.469 8.016 3.984v9.516c0 1.922-1.594 3.469-3.516 3.469l1.5 1.5v0.516h-12v-0.516l1.5-1.5c-1.922 0-3.516-1.547-3.516-3.469v-9.516c0-3.516 3.609-3.984 8.016-3.984z"></path>
</svg>
