<!-- Generated by IcoMoon.io -->
<svg version="1.1" xmlns="http://www.w3.org/2000/svg" width="24" height="24" viewBox="0 0 24 24">
<title>exposure_neg_2</title>
<path d="M2.016 11.016h7.969v1.969h-7.969v-1.969zM16.453 5.016c2.423 0 4.031 1.099 4.031 3.516 0 0.375-0.047 0.797-0.188 1.172s-0.281 0.797-0.516 1.172c-0.514 0.822-1.177 1.646-1.875 2.344l-2.859 3.094h5.953v1.688h-8.625v-1.5l4.172-4.547c0.634-0.634 1.042-1.19 1.453-1.875 0.238-0.397 0.328-0.728 0.328-1.313 0-0.281 0-0.609-0.094-0.844-0.279-0.698-0.804-1.219-1.781-1.219-1.427 0-2.156 0.866-2.156 2.297h-2.156c0-1.203 0.485-2.172 1.125-2.813 0.736-0.736 1.727-1.172 3.188-1.172z"></path>
</svg>
