<!-- Generated by IcoMoon.io -->
<svg version="1.1" xmlns="http://www.w3.org/2000/svg" width="24" height="24" viewBox="0 0 24 24">
<title>exposure_zero</title>
<path d="M14.016 10.125c0-1.209-0.068-2-0.516-2.672-0.188-0.281-0.422-0.422-0.656-0.563s-0.516-0.188-0.844-0.188-0.609 0.047-0.844 0.188-0.469 0.281-0.656 0.563c-0.447 0.67-0.516 1.464-0.516 2.672v2.672c0 1.609 0.218 2.756 1.172 3.328 0.234 0.141 0.516 0.188 0.844 0.188 0.786 0 1.163-0.291 1.5-0.797 0.416-0.624 0.563-1.613 0.563-2.719v-2.672h-0.047zM7.875 10.453c0-3.212 1.002-5.438 4.125-5.438 2.18 0 3.368 1.121 3.844 2.906 0.188 0.703 0.328 1.5 0.328 2.531v2.063h-0.047c0 1.863-0.36 3.236-1.125 4.219-0.375 0.422-0.797 0.797-1.313 0.984s-1.078 0.281-1.688 0.281-1.172-0.094-1.688-0.281-0.938-0.563-1.313-0.984c-0.818-0.92-1.125-2.403-1.125-4.219v-2.063z"></path>
</svg>
