<!-- Generated by IcoMoon.io -->
<svg version="1.1" xmlns="http://www.w3.org/2000/svg" width="24" height="24" viewBox="0 0 24 24">
<title>face</title>
<path d="M12 20.016c4.406 0 8.016-3.609 8.016-8.016 0-0.797-0.141-1.547-0.328-2.25-0.703 0.188-1.453 0.234-2.25 0.234-3.375 0-6.328-1.641-8.156-4.219-0.984 2.391-2.906 4.359-5.25 5.391-0.047 0.281-0.047 0.563-0.047 0.844 0 4.406 3.609 8.016 8.016 8.016zM12 2.016c5.531 0 9.984 4.453 9.984 9.984s-4.453 9.984-9.984 9.984-9.984-4.453-9.984-9.984 4.453-9.984 9.984-9.984zM15 11.766c0.703 0 1.266 0.516 1.266 1.219s-0.563 1.266-1.266 1.266-1.266-0.563-1.266-1.266 0.563-1.219 1.266-1.219zM9 11.766c0.703 0 1.266 0.516 1.266 1.219s-0.563 1.266-1.266 1.266-1.266-0.563-1.266-1.266 0.563-1.219 1.266-1.219z"></path>
</svg>
