<!-- Generated by IcoMoon.io -->
<svg version="1.1" xmlns="http://www.w3.org/2000/svg" width="24" height="24" viewBox="0 0 24 24">
<title>fiber_pin</title>
<path d="M20.016 15v-6h-1.266v3.516l-2.484-3.516h-1.266v6h1.266v-3.516l2.531 3.516h1.219zM12.516 15v-6h-1.5v6h1.5zM9 11.484v-0.984c0-0.844-0.656-1.5-1.5-1.5h-3.516v6h1.5v-2.016h2.016c0.844 0 1.5-0.656 1.5-1.5zM20.016 3.984c1.125 0 1.969 0.891 1.969 2.016v12c0 1.125-0.844 2.016-1.969 2.016h-16.031c-1.125 0-1.969-0.891-1.969-2.016v-12c0-1.125 0.844-2.016 1.969-2.016h16.031zM5.484 10.5h2.016v0.984h-2.016v-0.984z"></path>
</svg>
