<!-- Generated by IcoMoon.io -->
<svg version="1.1" xmlns="http://www.w3.org/2000/svg" width="24" height="24" viewBox="0 0 24 24">
<title>fiber_dvr</title>
<path d="M21 11.484v-0.984c0-0.844-0.656-1.5-1.5-1.5h-3.516v6h1.5v-2.016h1.172l0.844 2.016h1.5l-0.891-2.109c0.516-0.234 0.891-0.797 0.891-1.406zM12.609 15l1.781-6h-1.5l-1.031 3.422-0.984-3.422h-1.5l1.734 6h1.5zM8.016 13.5v-3c0-0.844-0.656-1.5-1.5-1.5h-3.516v6h3.516c0.844 0 1.5-0.656 1.5-1.5zM21 3c1.125 0 2.016 0.891 2.016 2.016v13.969c0 1.078-0.891 2.016-2.016 2.016h-18c-1.125 0-2.016-0.938-2.016-2.016v-13.969c0-1.125 0.891-2.016 2.016-2.016h18zM4.5 10.5h2.016v3h-2.016v-3zM17.484 10.5h2.016v0.984h-2.016v-0.984z"></path>
</svg>
