<!-- Generated by IcoMoon.io -->
<svg version="1.1" xmlns="http://www.w3.org/2000/svg" width="24" height="24" viewBox="0 0 24 24">
<title>filter_vintage</title>
<path d="M12 15.984c2.203 0 3.984-1.781 3.984-3.984s-1.781-3.984-3.984-3.984-3.984 1.781-3.984 3.984 1.781 3.984 3.984 3.984zM2.297 17.578c0-2.307 1.47-4.787 3.844-5.578-0.281-0.094-0.563-0.281-0.844-0.422-1.922-1.125-3-3.094-3-5.156 1.781-1.031 4.078-1.125 6 0 0.281 0.141 0.563 0.328 0.797 0.516-0.047-0.328-0.094-0.609-0.094-0.938 0-2.203 1.219-4.172 3-5.203 1.781 1.031 3 3 3 5.203 0 0.328-0.047 0.609-0.094 0.938 0.234-0.188 0.516-0.375 0.797-0.516 1.922-1.125 4.219-1.031 6 0 0 2.063-1.078 4.031-3 5.156-0.281 0.141-0.563 0.328-0.844 0.422 0.281 0.094 0.563 0.281 0.844 0.422 1.922 1.125 3 3.094 3 5.156-1.781 1.031-4.078 1.125-6 0-0.281-0.141-0.563-0.328-0.797-0.516 0.047 0.328 0.094 0.609 0.094 0.938 0 2.203-1.219 4.172-3 5.203-1.781-1.031-3-3-3-5.203 0-0.328 0.047-0.609 0.094-0.938-0.234 0.188-0.516 0.375-0.797 0.516-1.922 1.125-4.219 1.031-6 0z"></path>
</svg>
