<!-- Generated by IcoMoon.io -->
<svg version="1.1" xmlns="http://www.w3.org/2000/svg" width="24" height="24" viewBox="0 0 24 24">
<title>filter_tilt_shift</title>
<path d="M5.672 19.734l1.406-1.406c1.125 0.844 2.484 1.406 3.938 1.594v2.016c-2.016-0.188-3.844-0.984-5.344-2.203zM12.984 19.922c1.453-0.188 2.813-0.75 3.891-1.594l1.453 1.406c-1.5 1.219-3.328 2.016-5.344 2.203v-2.016zM18.328 16.922c0.844-1.125 1.406-2.438 1.594-3.891h2.016c-0.188 2.016-0.984 3.797-2.203 5.297zM15 12c0 1.641-1.359 3-3 3s-3-1.359-3-3 1.359-3 3-3 3 1.359 3 3zM4.078 12.984c0.188 1.453 0.75 2.813 1.594 3.891l-1.406 1.453c-1.219-1.5-2.016-3.328-2.203-5.344h2.016zM5.672 7.078c-0.844 1.125-1.406 2.484-1.594 3.938h-2.016c0.188-2.016 0.984-3.844 2.203-5.344zM19.922 11.016c-0.188-1.453-0.75-2.813-1.594-3.938l1.406-1.406c1.219 1.5 2.016 3.328 2.203 5.344h-2.016zM18.328 4.266l-1.406 1.406c-1.125-0.844-2.484-1.406-3.938-1.594v-2.016c2.016 0.188 3.844 0.984 5.344 2.203zM11.016 4.078c-1.453 0.188-2.813 0.75-3.938 1.594l-1.406-1.406c1.5-1.219 3.328-2.016 5.344-2.203v2.016z"></path>
</svg>
