<!-- Generated by IcoMoon.io -->
<svg version="1.1" xmlns="http://www.w3.org/2000/svg" width="24" height="24" viewBox="0 0 24 24">
<title>filter_center_focus</title>
<path d="M12 9c1.641 0 3 1.359 3 3s-1.359 3-3 3-3-1.359-3-3 1.359-3 3-3zM18.984 18.984v-3.984h2.016v3.984c0 1.078-0.938 2.016-2.016 2.016h-3.984v-2.016h3.984zM18.984 3c1.078 0 2.016 0.938 2.016 2.016v3.984h-2.016v-3.984h-3.984v-2.016h3.984zM5.016 5.016v3.984h-2.016v-3.984c0-1.078 0.938-2.016 2.016-2.016h3.984v2.016h-3.984zM5.016 15v3.984h3.984v2.016h-3.984c-1.078 0-2.016-0.938-2.016-2.016v-3.984h2.016z"></path>
</svg>
