<!-- Generated by IcoMoon.io -->
<svg version="1.1" xmlns="http://www.w3.org/2000/svg" width="24" height="24" viewBox="0 0 24 24">
<title>filter_9_plus</title>
<path d="M21 9v-6h-14.016v14.016h14.016v-6h-2.016v1.969h-1.969v-1.969h-2.016v-2.016h2.016v-2.016h1.969v2.016h2.016zM21 0.984c1.078 0 2.016 0.938 2.016 2.016v14.016c0 1.078-0.938 1.969-2.016 1.969h-14.016c-1.078 0-1.969-0.891-1.969-1.969v-14.016c0-1.078 0.891-2.016 1.969-2.016h14.016zM11.016 9h0.984v-0.984h-0.984v0.984zM14.016 12c0 1.125-0.938 2.016-2.016 2.016h-3v-2.016h3v-0.984h-0.984c-1.078 0-2.016-0.891-2.016-2.016v-0.984c0-1.125 0.938-2.016 2.016-2.016h0.984c1.078 0 2.016 0.891 2.016 2.016v3.984zM3 5.016v15.984h15.984v2.016h-15.984c-1.078 0-2.016-0.938-2.016-2.016v-15.984h2.016z"></path>
</svg>
