<!-- Generated by IcoMoon.io -->
<svg version="1.1" xmlns="http://www.w3.org/2000/svg" width="24" height="24" viewBox="0 0 24 24">
<title>filter_5</title>
<path d="M17.016 12.984c0 1.125-0.938 2.016-2.016 2.016h-3.984v-2.016h3.984v-1.969h-3.984v-6h6v1.969h-4.031v2.016h2.016c1.078 0 2.016 0.891 2.016 2.016v1.969zM3 5.016v15.984h15.984v2.016h-15.984c-1.078 0-2.016-0.938-2.016-2.016v-15.984h2.016zM21 17.016v-14.016h-14.016v14.016h14.016zM21 0.984c1.078 0 2.016 0.938 2.016 2.016v14.016c0 1.078-0.938 1.969-2.016 1.969h-14.016c-1.078 0-1.969-0.891-1.969-1.969v-14.016c0-1.078 0.891-2.016 1.969-2.016h14.016z"></path>
</svg>
