<!-- Generated by IcoMoon.io -->
<svg version="1.1" xmlns="http://www.w3.org/2000/svg" width="24" height="24" viewBox="0 0 24 24">
<title>leak_add</title>
<path d="M14.016 21c0-3.891 3.094-6.984 6.984-6.984v1.969c-2.766 0-5.016 2.25-5.016 5.016h-1.969zM18 21c0-1.641 1.359-3 3-3v3h-3zM9.984 21c0-6.047 4.969-11.016 11.016-11.016v2.016c-4.969 0-9 4.031-9 9h-2.016zM9.984 3c0 3.891-3.094 6.984-6.984 6.984v-1.969c2.766 0 5.016-2.25 5.016-5.016h1.969zM14.016 3c0 6.047-4.922 11.016-11.016 11.016v-2.016c4.969 0 9-4.031 9-9h2.016zM6 3c0 1.641-1.359 3-3 3v-3h3z"></path>
</svg>
