<!-- Generated by IcoMoon.io -->
<svg version="1.1" xmlns="http://www.w3.org/2000/svg" width="24" height="24" viewBox="0 0 24 24">
<title>motorcycle</title>
<path d="M18.984 17.016c1.641 0 3-1.359 3-3s-1.359-3-3-3-3 1.359-3 3 1.359 3 3 3zM7.828 15h-2.813v-2.016h2.813c-0.422-1.172-1.547-1.969-2.813-1.969-1.641 0-3 1.359-3 3s1.359 3 3 3c1.266 0 2.391-0.844 2.813-2.016zM19.453 9.047c2.578 0.188 4.547 2.297 4.547 4.969 0 2.813-2.203 4.969-5.016 4.969s-4.969-2.156-4.969-4.969c0-0.609 0.094-1.219 0.281-1.781l-2.766 2.766h-1.641c-0.469 2.297-2.438 3.984-4.875 3.984-2.813 0-5.016-2.156-5.016-4.969s2.203-5.016 5.016-5.016h11.578l-2.016-2.016h-3.563v-1.969h4.406z"></path>
</svg>
