<!-- Generated by IcoMoon.io -->
<svg version="1.1" xmlns="http://www.w3.org/2000/svg" width="24" height="24" viewBox="0 0 24 24">
<title>network_check</title>
<path d="M5.016 12.984c2.016-2.016 4.688-2.953 7.313-2.859l-1.313 2.859c-1.453 0.188-2.906 0.891-4.031 2.016zM17.016 15c-0.375-0.375-0.797-0.703-1.219-0.984l0.563-2.906c0.938 0.469 1.828 1.078 2.625 1.875zM21 11.016c-1.219-1.219-2.625-2.156-4.125-2.766l0.516-2.813c2.063 0.75 3.984 1.922 5.625 3.563zM0.984 9c3.75-3.75 8.906-5.156 13.734-4.313l-1.172 2.672c-3.75-0.469-7.688 0.797-10.547 3.656zM15.891 5.016c0.281 0 0.516 0.188 0.516 0.469l-2.438 12.891v0.047c-0.188 0.891-1.031 1.594-1.969 1.594-1.125 0-2.016-0.891-2.016-2.016 0-0.328 0.094-0.703 0.234-0.984l5.203-11.625c0.074-0.221 0.214-0.375 0.469-0.375z"></path>
</svg>
