<!-- Generated by IcoMoon.io -->
<svg version="1.1" xmlns="http://www.w3.org/2000/svg" width="24" height="24" viewBox="0 0 24 24">
<title>network_locked</title>
<path d="M21 15.984v-1.5c0-0.844-0.656-1.5-1.5-1.5s-1.5 0.656-1.5 1.5v1.5h3zM21.984 15.984c0.563 0 1.031 0.469 1.031 1.031v3.984c0 0.563-0.469 0.984-1.031 0.984h-4.969c-0.563 0-1.031-0.422-1.031-0.984v-3.984c0-0.563 0.469-1.031 1.031-1.031v-1.5c0-1.359 1.125-2.484 2.484-2.484s2.484 1.125 2.484 2.484v1.5zM19.5 9.984c-2.484 0-4.5 2.016-4.5 4.5v0.281c-0.609 0.563-0.984 1.359-0.984 2.25v3h-13.031l19.031-19.031v9.047c-0.188 0-0.328-0.047-0.516-0.047z"></path>
</svg>
