<!-- Generated by IcoMoon.io -->
<svg version="1.1" xmlns="http://www.w3.org/2000/svg" width="24" height="24" viewBox="0 0 24 24">
<title>nfc</title>
<path d="M18 6v12h-12v-12h3.984v2.016h-1.969v7.969h7.969v-7.969h-3v2.25c0.609 0.328 1.031 0.984 1.031 1.734 0 1.078-0.938 2.016-2.016 2.016s-2.016-0.938-2.016-2.016c0-0.75 0.422-1.406 1.031-1.734v-2.25c0-1.078 0.891-2.016 1.969-2.016h5.016zM20.016 20.016v-16.031h-16.031v16.031h16.031zM20.016 2.016c1.078 0 1.969 0.891 1.969 1.969v16.031c0 1.078-0.891 1.969-1.969 1.969h-16.031c-1.078 0-1.969-0.891-1.969-1.969v-16.031c0-1.078 0.891-1.969 1.969-1.969h16.031z"></path>
</svg>
