<!-- Generated by IcoMoon.io -->
<svg version="1.1" xmlns="http://www.w3.org/2000/svg" width="24" height="24" viewBox="0 0 24 24">
<title>pets</title>
<path d="M17.344 14.859c1.313 1.313 2.953 2.719 2.625 4.781-0.281 1.031-1.031 2.063-2.344 2.344-0.75 0.141-3.047-0.422-5.531-0.422h-0.188c-2.484 0-4.781 0.563-5.531 0.422-1.313-0.281-2.063-1.313-2.344-2.344-0.281-2.016 1.313-3.469 2.625-4.781 0.891-1.031 1.594-1.875 2.484-2.906 0.469-0.563 1.031-1.078 1.734-1.313 0.094-0.047 0.234-0.094 0.328-0.094 0.281-0.047 0.516-0.047 0.797-0.047s0.563 0 0.797 0.047c0.094 0 0.234 0.047 0.328 0.094 0.703 0.234 1.266 0.75 1.734 1.313 0.891 1.031 1.594 1.875 2.484 2.906zM17.016 9.516c0-1.359 1.125-2.531 2.484-2.531s2.484 1.172 2.484 2.531-1.125 2.484-2.484 2.484-2.484-1.125-2.484-2.484zM12.516 5.484c0-1.359 1.125-2.484 2.484-2.484s2.484 1.125 2.484 2.484-1.125 2.531-2.484 2.531-2.484-1.172-2.484-2.531zM6.516 5.484c0-1.359 1.125-2.484 2.484-2.484s2.484 1.125 2.484 2.484-1.125 2.531-2.484 2.531-2.484-1.172-2.484-2.531zM2.016 9.516c0-1.359 1.125-2.531 2.484-2.531s2.484 1.172 2.484 2.531-1.125 2.484-2.484 2.484-2.484-1.125-2.484-2.484z"></path>
</svg>
