<!-- Generated by IcoMoon.io -->
<svg version="1.1" xmlns="http://www.w3.org/2000/svg" width="24" height="24" viewBox="0 0 24 24">
<title>pool</title>
<path d="M14.016 5.484c0-1.359 1.125-2.484 2.484-2.484s2.484 1.125 2.484 2.484-1.125 2.531-2.484 2.531-2.484-1.172-2.484-2.531zM8.672 12c-0.563 0-0.797-0.141-1.172-0.375-0.188-0.141-0.422-0.234-0.75-0.375l3.234-3.234-0.984-1.031c-1.125-1.125-2.156-1.5-3.984-1.5v-2.484c2.484 0 3.938 0.469 5.484 2.016l6.422 6.375c-0.141 0.094-0.281 0.188-0.422 0.234-0.375 0.234-0.609 0.375-1.172 0.375s-0.75-0.141-1.125-0.375c-0.469-0.281-1.078-0.609-2.203-0.609s-1.734 0.328-2.203 0.609c-0.375 0.234-0.563 0.375-1.125 0.375zM21.984 16.5c-1.125 0-1.688-0.375-2.156-0.656-0.375-0.234-0.609-0.328-1.172-0.328s-0.75 0.094-1.125 0.328c-0.469 0.281-1.078 0.656-2.203 0.656s-1.688-0.375-2.156-0.656c-0.375-0.234-0.609-0.328-1.172-0.328s-0.75 0.094-1.125 0.328c-0.469 0.281-1.078 0.656-2.203 0.656s-1.688-0.375-2.156-0.656c-0.375-0.234-0.609-0.328-1.172-0.328s-0.75 0.094-1.125 0.328c-0.469 0.281-1.078 0.656-2.203 0.656v-2.016c0.563 0 0.75-0.094 1.125-0.328 0.469-0.281 1.078-0.656 2.203-0.656s1.688 0.375 2.156 0.656c0.375 0.234 0.609 0.328 1.172 0.328s0.75-0.094 1.125-0.328c0.469-0.281 1.078-0.656 2.203-0.656s1.688 0.375 2.156 0.656c0.375 0.234 0.609 0.328 1.172 0.328s0.75-0.094 1.125-0.328c0.469-0.281 1.078-0.656 2.203-0.656s1.688 0.375 2.156 0.656c0.375 0.234 0.609 0.328 1.172 0.328v2.016zM21.984 21c-1.125 0-1.688-0.375-2.156-0.656-0.375-0.234-0.609-0.328-1.172-0.328s-0.75 0.094-1.125 0.328c-0.469 0.281-1.078 0.656-2.203 0.656s-1.688-0.375-2.156-0.656c-0.375-0.234-0.609-0.328-1.172-0.328s-0.75 0.094-1.125 0.328c-0.469 0.281-1.078 0.656-2.203 0.656s-1.734-0.375-2.203-0.656c-0.375-0.234-0.563-0.328-1.125-0.328s-0.797 0.094-1.172 0.328c-0.469 0.281-1.031 0.656-2.156 0.656v-2.016c0.563 0 0.75-0.094 1.125-0.328 0.469-0.281 1.078-0.656 2.203-0.656s1.688 0.375 2.156 0.656c0.375 0.234 0.609 0.328 1.172 0.328s0.75-0.094 1.125-0.328c0.469-0.281 1.078-0.656 2.203-0.656s1.734 0.375 2.203 0.656c0.375 0.234 0.563 0.328 1.125 0.328s0.797-0.094 1.172-0.328c0.469-0.281 1.031-0.656 2.156-0.656s1.734 0.375 2.203 0.656c0.375 0.234 0.563 0.328 1.125 0.328v2.016z"></path>
</svg>
