<!-- Generated by IcoMoon.io -->
<svg version="1.1" xmlns="http://www.w3.org/2000/svg" width="24" height="24" viewBox="0 0 24 24">
<title>portable_wifi_off</title>
<path d="M3.281 2.484l0.984 1.031 16.734 16.734-1.266 1.266-7.5-7.547h-0.047l-0.188 0.047c-1.078 0-2.016-0.938-2.016-2.016l0.047-0.188-1.594-1.594c-0.281 0.563-0.422 1.125-0.422 1.781 0 1.5 0.797 2.766 1.969 3.469l-0.984 1.734c-1.781-1.031-3-3-3-5.203 0-1.219 0.328-2.297 0.938-3.234l-1.406-1.453c-0.938 1.313-1.547 2.906-1.547 4.688 0 2.953 1.594 5.531 3.984 6.938l-0.984 1.734c-3-1.734-4.969-4.969-4.969-8.672 0-2.297 0.75-4.453 2.063-6.141l-2.063-2.109zM12 3.984c-1.359 0-2.625 0.328-3.75 0.938l-1.453-1.453c1.5-0.938 3.281-1.453 5.203-1.453 5.531 0 9.984 4.453 9.984 9.984 0 1.922-0.516 3.703-1.453 5.203l-1.5-1.453c0.609-1.125 0.984-2.391 0.984-3.75 0-4.406-3.609-8.016-8.016-8.016zM17.578 14.25l-1.641-1.641c0.047-0.188 0.047-0.422 0.047-0.609 0-2.203-1.781-3.984-3.984-3.984-0.188 0-0.422 0-0.609 0.047l-1.641-1.641c0.703-0.281 1.453-0.422 2.25-0.422 3.328 0 6 2.672 6 6 0 0.797-0.141 1.547-0.422 2.25z"></path>
</svg>
