<!-- Generated by IcoMoon.io -->
<svg version="1.1" xmlns="http://www.w3.org/2000/svg" width="24" height="24" viewBox="0 0 24 24">
<title>signal_wifi_4_bar_lock</title>
<path d="M15.516 14.484v2.625l-3.516 4.406-11.578-14.531c0.422-0.281 4.875-3.984 11.578-3.984s11.156 3.703 11.578 3.984l-2.063 2.625c-0.281-0.094-0.609-0.094-1.031-0.094-2.813 0-4.969 2.156-4.969 4.969zM21.984 15.984v-1.5c0-0.797-0.703-1.5-1.5-1.5s-1.5 0.703-1.5 1.5v1.5h3zM23.016 15.984c0.516 0 0.984 0.516 0.984 1.031v3.984c0 0.516-0.469 0.984-0.984 0.984h-5.016c-0.516 0-0.984-0.469-0.984-0.984v-3.984c0-0.516 0.469-1.031 0.984-1.031v-1.5c0-1.406 1.078-2.484 2.484-2.484s2.531 1.078 2.531 2.484v1.5z"></path>
</svg>
