<!-- Generated by IcoMoon.io -->
<svg version="1.1" xmlns="http://www.w3.org/2000/svg" width="24" height="24" viewBox="0 0 24 24">
<title>traffic</title>
<path d="M12 9c1.125 0 2.016-0.938 2.016-2.016 0-1.125-0.938-1.969-2.016-1.969-1.125 0-2.016 0.844-2.016 1.969 0 1.078 0.891 2.016 2.016 2.016zM12 14.016c1.125 0 2.016-0.938 2.016-2.016s-0.938-2.016-2.016-2.016c-1.125 0-2.016 0.938-2.016 2.016s0.891 2.016 2.016 2.016zM12 18.984c1.125 0 2.016-0.891 2.016-1.969s-0.938-2.016-2.016-2.016c-1.125 0-2.016 0.938-2.016 2.016s0.891 1.969 2.016 1.969zM20.016 9.984c0 1.875-1.266 3.422-3 3.891v1.125h3c0 1.875-1.266 3.375-3 3.844v1.172c0 0.563-0.469 0.984-1.031 0.984h-7.969c-0.563 0-1.031-0.422-1.031-0.984v-1.172c-1.734-0.469-3-1.969-3-3.844h3v-1.125c-1.734-0.469-3-2.016-3-3.891h3v-1.125c-1.734-0.469-3-1.969-3-3.844h3v-1.031c0-0.563 0.469-0.984 1.031-0.984h7.969c0.563 0 1.031 0.422 1.031 0.984v1.031h3c0 1.875-1.266 3.375-3 3.844v1.125h3z"></path>
</svg>
