<!-- Generated by IcoMoon.io -->
<svg version="1.1" xmlns="http://www.w3.org/2000/svg" width="24" height="24" viewBox="0 0 24 24">
<title>train</title>
<path d="M16.5 17.016c0.844 0 1.5-0.656 1.5-1.5s-0.656-1.5-1.5-1.5-1.5 0.656-1.5 1.5 0.656 1.5 1.5 1.5zM12.984 9.984h5.016v-3.984h-5.016v3.984zM11.016 9.984v-3.984h-5.016v3.984h5.016zM7.5 17.016c0.844 0 1.5-0.656 1.5-1.5s-0.656-1.5-1.5-1.5-1.5 0.656-1.5 1.5 0.656 1.5 1.5 1.5zM12 2.016c4.406 0 8.016 0.469 8.016 3.984v9.516c0 1.922-1.594 3.469-3.516 3.469l1.5 1.5v0.516h-2.016l-1.969-2.016h-3.797l-1.969 2.016h-2.25v-0.516l1.5-1.5c-1.922 0-3.516-1.547-3.516-3.469v-9.516c0-3.516 4.031-3.984 8.016-3.984z"></path>
</svg>
