<!-- Generated by IcoMoon.io -->
<svg version="1.1" xmlns="http://www.w3.org/2000/svg" width="24" height="24" viewBox="0 0 24 24">
<title>tram</title>
<path d="M17.016 14.016v-5.016h-10.031v5.016h10.031zM12 18.516c0.844 0 1.5-0.656 1.5-1.5s-0.656-1.5-1.5-1.5-1.5 0.656-1.5 1.5 0.656 1.5 1.5 1.5zM18.984 16.922c0 1.688-0.891 3.094-2.578 3.094h0.094l1.5 1.5v0.469h-2.016l-1.969-1.969h-3.797l-1.969 1.969h-2.25v-0.469l1.594-1.594c-1.406-0.328-2.578-1.547-2.578-3v-8.438c0-2.766 2.813-3.375 5.953-3.469l0.797-1.5h-4.781v-1.5h10.031v1.5h-3.281l-0.75 1.5c3.422 0.094 6 0.656 6 3.469v8.438z"></path>
</svg>
